<?xml version="1.0" standalone="no"?>
<!DOCTYPE svg PUBLIC "-//W3C//DTD SVG 20010904//EN"
        "http://www.w3.org/TR/2001/REC-SVG-20010904/DTD/svg10.dtd">
<svg version="1.0" xmlns="http://www.w3.org/2000/svg"
     width="800.000000pt" height="640.000000pt" viewBox="0 0 800.000000 640.000000"
     preserveAspectRatio="xMidYMid meet">

    <g transform="translate(0.000000,640.000000) scale(0.100000,-0.100000)"
       fill="#000000" stroke="none">
        <path d="M3780 5994 c-369 -32 -722 -145 -1024 -327 -469 -281 -801 -599
-1021 -977 -80 -137 -213 -409 -245 -500 -12 -36 -26 -74 -30 -85 -19 -46 -61
-198 -84 -305 -99 -459 -84 -935 44 -1385 4 -16 15 -55 23 -85 9 -30 23 -68
31 -85 9 -16 16 -34 16 -39 0 -21 68 -179 126 -293 157 -308 380 -581 709
-867 164 -143 485 -339 605 -370 14 -4 -6 8 -43 26 -38 18 -65 37 -61 41 5 4
1 5 -8 2 -11 -5 -51 12 -110 46 -403 229 -738 576 -952 984 -26 50 -41 82 -33
73 8 -10 17 -14 21 -10 4 4 7 2 6 -3 -6 -28 1 -33 43 -28 23 3 49 11 57 18 21
17 70 28 70 15 0 -22 37 -7 60 25 30 41 63 48 56 11 -4 -20 -1 -23 17 -18 12
3 28 9 35 15 13 10 17 31 4 23 -4 -2 -9 4 -9 15 -2 23 24 25 55 3 21 -15 22
-14 23 13 1 15 1 31 0 35 0 4 6 5 14 1 12 -4 13 -8 4 -19 -7 -8 -9 -18 -5 -22
4 -4 14 1 21 11 7 10 29 21 49 24 20 3 36 11 36 18 0 13 47 38 59 31 4 -3 29
-7 55 -11 42 -5 48 -3 53 15 6 23 28 25 63 5 38 -22 67 -19 76 8 l8 22 7 -25
c7 -24 7 -24 8 -2 1 12 5 22 10 22 5 0 7 10 5 23 l-5 22 12 -23 c7 -13 18 -21
25 -18 8 3 16 1 19 -5 4 -5 11 -6 17 -3 7 5 8 2 3 -6 -5 -8 -1 -18 10 -27 18
-12 18 -13 -3 -13 -12 0 -21 3 -21 8 3 17 -2 32 -9 32 -5 0 -7 -13 -4 -30 3
-23 9 -30 28 -30 26 0 40 -15 23 -26 -6 -3 -15 0 -20 7 -4 7 -12 10 -16 5 -4
-5 -2 -11 5 -13 6 -3 12 -11 12 -18 0 -8 8 -20 18 -27 9 -7 24 -22 32 -33 14
-19 14 -19 -5 -4 -33 27 -50 20 -53 -23 -1 -23 2 -38 9 -38 7 0 9 10 7 25 -5
22 -3 23 10 13 8 -7 18 -13 21 -13 3 0 5 -6 5 -12 -1 -7 3 -13 10 -13 6 0 18
-5 26 -10 13 -9 13 -11 0 -20 -13 -9 -13 -11 0 -19 8 -6 11 -13 7 -18 -12 -12
-27 19 -21 42 5 16 4 18 -7 8 -7 -7 -18 -13 -23 -13 -6 0 -5 4 3 9 10 7 7 9
-12 8 -14 -1 -22 -6 -19 -12 4 -5 5 -19 4 -30 -1 -12 9 -28 23 -38 22 -16 26
-16 31 -3 3 9 15 16 26 16 10 0 16 5 13 10 -3 6 -1 10 4 10 6 0 10 15 10 33
-2 30 -2 30 -6 4 -2 -15 -8 -27 -13 -27 -11 0 -8 53 4 61 15 11 -5 31 -26 26
-14 -4 -16 -2 -10 6 11 14 12 77 1 77 -4 0 -6 -11 -5 -25 2 -13 -1 -22 -6 -19
-11 7 -1 73 12 89 5 6 2 19 -6 29 -17 24 -18 46 -3 46 6 0 8 -7 5 -16 -3 -8
-2 -12 4 -9 6 3 10 1 10 -4 0 -6 5 -11 11 -11 6 0 -6 23 -26 50 -21 28 -36 53
-34 55 3 2 24 -24 49 -58 25 -34 97 -116 160 -181 63 -66 103 -112 88 -103
-16 10 -28 13 -28 8 0 -16 -31 -21 -53 -10 -21 12 -22 11 -4 -8 18 -20 17 -21
-20 -28 -41 -7 -86 -43 -109 -87 -21 -41 -18 -111 7 -139 18 -21 20 -21 13 -4
-12 32 -17 93 -10 120 3 14 20 40 37 60 27 31 37 35 79 35 53 0 80 -7 80 -22
0 -5 -4 -6 -10 -3 -6 3 -7 -1 -4 -9 3 -9 2 -16 -4 -16 -17 0 -24 -34 -9 -45 7
-5 19 -20 26 -32 6 -13 19 -23 27 -23 9 0 25 -10 35 -22 l20 -23 -6 32 c-4 21
-3 33 4 33 6 0 11 -8 12 -17 0 -15 2 -15 9 2 5 11 9 14 9 6 1 -8 8 -11 21 -8
11 3 18 0 17 -7 -1 -6 15 -12 38 -14 67 -5 157 -112 95 -112 -11 0 -20 -5 -20
-11 0 -13 79 -6 109 10 25 14 41 14 21 1 -12 -8 -12 -10 5 -10 15 0 17 -2 6
-9 -9 -6 -11 -18 -6 -40 5 -25 3 -31 -10 -31 -9 0 -13 4 -10 10 4 6 -1 7 -11
3 -15 -5 -15 -7 0 -15 9 -5 16 -21 17 -36 1 -26 1 -26 10 5 6 20 16 33 26 33
12 0 13 -3 3 -15 -21 -25 -8 -49 27 -51 47 -2 85 -13 78 -23 -5 -10 25 -25 33
-16 3 3 2 5 -2 5 -5 0 2 9 15 21 23 20 18 21 -25 3 -7 -3 -20 2 -29 10 -9 9
-20 16 -26 16 -6 0 -11 5 -11 11 0 7 -11 8 -30 4 -33 -7 -41 8 -12 24 10 5 19
22 20 38 1 15 10 34 19 40 9 7 13 16 9 20 -4 4 -12 -1 -18 -11 -8 -15 -12 -16
-19 -5 -14 23 -10 28 19 25 28 -2 31 -12 18 -53 -9 -29 6 -30 19 -1 12 25 35
36 35 16 0 -29 21 -37 51 -19 29 15 31 15 45 -4 13 -17 16 -18 24 -5 9 13 11
13 20 0 5 -8 10 -21 10 -27 0 -23 19 -14 26 12 4 16 12 24 23 23 9 -2 16 4 16
12 0 10 -8 14 -23 12 -13 -2 -25 3 -28 13 -6 14 -7 14 -18 -1 -8 -10 -27 -16
-50 -16 -45 0 -53 6 -35 29 12 15 12 16 -3 10 -11 -4 -17 -2 -15 6 1 8 -8 11
-25 9 -19 -2 -28 2 -28 11 0 16 -64 38 -88 31 -16 -5 -16 -5 -1 5 15 10 75 -4
159 -36 8 -4 21 -5 29 -4 7 1 11 -1 8 -6 -3 -4 11 -8 31 -8 21 -1 84 -7 142
-14 61 -8 144 -11 200 -8 55 3 84 2 70 -3 -14 -4 -41 -9 -60 -9 -55 -2 -81
-12 -78 -30 1 -9 -1 -22 -5 -29 -5 -7 -1 -19 8 -29 14 -13 18 -14 25 -2 5 7
11 11 14 8 3 -3 -3 -15 -13 -26 -20 -21 -20 -21 3 -19 13 0 22 6 19 12 -2 7 1
15 8 20 7 4 10 3 6 -4 -4 -5 -4 -18 0 -29 6 -16 8 -15 14 7 7 23 7 24 8 3 1
-25 -39 -50 -76 -47 -18 1 -23 -4 -23 -22 0 -13 5 -24 10 -24 6 0 10 7 10 15
0 8 5 15 11 15 7 0 8 -11 4 -32 -12 -52 -46 -73 -73 -46 -9 9 -12 5 -12 -22 0
-18 -7 -42 -17 -52 -16 -18 -8 -23 21 -12 9 3 16 12 16 20 0 9 11 14 30 14 34
0 42 -20 8 -21 -13 0 -17 -3 -10 -6 13 -5 17 -35 6 -46 -12 -12 -16 -107 -5
-107 6 0 11 -9 11 -20 0 -11 -4 -20 -9 -20 -5 0 0 -11 12 -24 19 -22 23 -23
29 -8 6 15 7 15 7 -1 1 -10 5 -16 10 -13 5 4 4 -5 -2 -19 -8 -17 -13 -20 -15
-10 -4 16 -22 21 -22 7 0 -12 34 -42 47 -42 14 0 10 -45 -6 -64 -6 -8 -10 -18
-9 -23 2 -4 -7 -19 -18 -31 -18 -19 -22 -21 -27 -8 -4 10 -1 16 7 16 15 0 26
21 26 51 0 11 4 18 8 15 4 -2 8 4 8 14 0 10 -3 17 -7 14 -4 -2 -9 0 -11 6 -2
6 -8 6 -18 0 -13 -8 -12 -10 3 -10 9 0 17 -4 17 -10 0 -15 -21 -12 -42 7 -21
19 -37 10 -19 -11 9 -11 9 -17 -2 -28 -7 -7 -12 -18 -10 -25 2 -6 -6 -13 -19
-16 -20 -4 -19 -4 6 -6 24 -1 27 -3 16 -16 -7 -8 -10 -25 -6 -40 5 -21 12 -25
45 -25 22 0 41 -4 43 -10 5 -14 73 -18 126 -8 26 6 55 10 65 10 10 -1 15 4 11
10 -5 7 1 9 19 4 14 -3 28 -2 31 3 3 4 24 8 46 8 22 0 39 -1 37 -3 -9 -9 -207
-46 -253 -47 -29 -1 -50 -5 -48 -9 12 -19 -424 -21 -571 -3 -37 5 -38 5 -15
-6 17 -9 107 -13 290 -13 232 -1 281 2 394 22 456 80 789 234 1156 536 102 84
303 283 349 346 l33 45 -35 -36 -35 -36 2 60 c2 45 7 63 21 73 10 8 15 17 10
21 -4 5 -10 2 -12 -4 -5 -15 -23 -17 -23 -3 0 5 11 12 24 16 14 3 30 18 36 32
l10 27 -6 -29 c-5 -26 -3 -28 10 -17 9 7 14 17 11 21 -3 5 0 10 7 12 7 3 12
21 12 41 0 20 2 34 5 32 2 -3 10 8 17 23 13 31 8 85 -7 76 -5 -3 -6 2 -3 11 5
13 9 12 26 -7 19 -21 20 -21 14 -3 -4 16 1 23 25 34 27 12 33 12 40 0 7 -11 9
-9 9 6 0 11 4 26 9 34 8 12 12 12 25 -2 9 -8 16 -21 16 -27 0 -6 5 -8 10 -5 6
4 7 11 4 17 -5 7 -1 9 9 5 9 -3 19 -1 23 5 4 7 3 8 -4 4 -7 -4 -12 -2 -12 3 0
6 7 11 16 11 10 0 14 5 10 16 -4 10 -2 13 6 8 8 -5 9 -2 5 10 -4 9 -3 15 1 12
20 -12 178 369 260 624 116 364 144 881 71 1310 -66 388 -211 762 -417 1075
-97 148 -173 244 -287 360 -48 50 -78 78 -66 64 12 -14 18 -29 14 -33 -5 -4
-2 -6 6 -4 7 2 16 -3 18 -9 3 -7 -2 -13 -11 -13 -11 0 -16 -9 -16 -26 0 -18
-6 -28 -21 -31 -11 -3 -18 -11 -15 -19 3 -7 1 -16 -4 -19 -5 -3 -7 -12 -3 -20
4 -11 -3 -15 -26 -15 -20 0 -31 -5 -31 -14 0 -20 -50 -77 -61 -70 -9 5 -49
-31 -49 -45 0 -3 -7 -15 -15 -25 -14 -18 -16 -18 -34 -2 -18 16 -19 15 -25
-14 -4 -22 -11 -30 -23 -28 -12 2 -18 -3 -18 -15 0 -12 -13 -24 -32 -32 -20
-8 -35 -23 -38 -38 -4 -14 -19 -30 -38 -38 -21 -9 -31 -20 -29 -31 2 -10 -3
-18 -10 -18 -7 0 -20 -5 -28 -10 -13 -8 -12 -11 5 -25 19 -16 19 -16 -8 -12
-22 3 -28 0 -33 -19 -3 -13 -3 -35 0 -49 7 -28 -5 -33 -24 -10 -7 9 -19 14
-27 11 -8 -3 -12 -2 -9 2 3 4 -4 14 -16 21 -12 8 -17 8 -13 1 4 -6 -18 5 -49
25 -125 80 -341 175 -453 200 -18 3 -33 10 -33 15 0 5 -14 11 -31 15 -28 6
-30 9 -16 23 13 13 19 13 31 2 14 -11 16 -9 16 9 0 14 6 21 20 21 30 0 24 13
-16 35 -35 19 -36 20 -13 25 22 6 24 11 23 69 -1 48 2 61 13 57 7 -3 13 -1 13
5 0 6 -9 13 -19 16 -33 8 -34 33 -2 33 31 0 35 18 13 57 -10 19 -10 22 1 17
10 -4 16 7 20 38 3 24 2 44 -4 46 -15 6 -10 22 7 22 13 0 15 7 11 35 -4 22 0
46 9 63 16 32 18 52 4 52 -12 0 -1 62 13 71 9 7 8 20 -8 64 -5 16 -5 17 4 5 6
-9 11 -10 11 -3 0 6 3 18 6 27 4 11 0 16 -12 17 -13 0 -11 4 9 11 32 11 38 54
10 65 -15 6 -14 8 7 13 14 4 28 2 31 -3 4 -5 8 7 11 26 3 31 1 37 -19 42 -13
3 -21 10 -18 14 6 11 -98 36 -234 57 -96 14 -386 26 -471 18z m697 -210 c-3
-3 -12 -4 -19 -1 -8 3 -5 6 6 6 11 1 17 -2 13 -5z m-428 -330 c12 -15 21 -34
21 -43 0 -9 -9 -2 -20 17 -11 18 -34 41 -50 50 -16 9 -30 20 -30 25 0 14 58
-22 79 -49z m-1200 -58 c0 -14 -2 -16 -6 -6 -3 8 -12 29 -20 45 l-14 30 21
-24 c11 -13 20 -33 19 -45z m24 -16 c3 -11 1 -20 -4 -20 -5 0 -9 9 -9 20 0 11
2 20 4 20 2 0 6 -9 9 -20z m1224 -22 c-3 -8 -6 -5 -6 6 -1 11 2 17 5 13 3 -3
4 -12 1 -19z m-1232 -58 c-4 -12 -9 -19 -12 -17 -3 3 -2 15 2 27 4 12 9 19 12
17 3 -3 2 -15 -2 -27z m-27 -5 c-6 -14 -15 -25 -19 -25 -4 0 -2 11 4 25 7 14
15 25 19 25 4 0 2 -11 -4 -25z m1252 -5 c-6 -12 -14 -19 -17 -17 -2 3 1 15 7
27 6 12 14 19 17 17 2 -3 -1 -15 -7 -27z m-1892 -78 c-89 -91 -215 -241 -270
-319 -28 -40 -53 -73 -55 -73 -11 0 73 117 162 225 89 109 207 236 213 230 3
-3 -19 -31 -50 -63z m1832 33 c-7 -8 -20 -15 -29 -15 -11 1 -8 5 9 15 32 18
35 18 20 0z m-485 -45 c3 -5 11 -10 16 -10 6 0 7 5 3 12 -5 7 -3 8 5 4 7 -5
10 -11 7 -14 -4 -3 2 -15 12 -26 11 -12 22 -30 26 -41 4 -11 -7 -4 -26 18 -18
21 -51 44 -73 52 l-40 14 32 1 c17 0 35 -4 38 -10z m105 -142 c0 -16 -3 -19
-11 -11 -6 6 -8 16 -5 22 11 17 16 13 16 -11z m-19 -71 c-8 -8 -11 -7 -11 4 0
20 13 34 18 19 3 -7 -1 -17 -7 -23z m-41 -22 c-7 -8 -16 -15 -21 -15 -5 0 -1
8 9 18 20 22 31 19 12 -3z m-1215 -65 c-34 -7 -46 -3 -26 9 7 5 23 6 35 3 19
-6 18 -7 -9 -12z m1800 -20 l20 -9 -20 0 c-11 0 -27 4 -35 9 -13 9 -13 10 0 9
8 0 24 -4 35 -9z m-42 -14 c29 -8 65 -17 80 -20 36 -8 113 -79 136 -126 10
-19 26 -58 35 -86 l16 -51 110 -47 c123 -54 153 -55 219 -10 l35 24 30 -24
c44 -33 187 -197 236 -269 34 -51 40 -67 37 -102 -2 -23 -7 -47 -11 -54 -8
-13 96 -207 122 -228 8 -7 27 -9 45 -6 20 4 28 3 24 -4 -4 -6 6 -62 23 -124
16 -63 34 -143 40 -179 15 -81 28 -250 19 -250 -26 0 -46 -273 -21 -302 22
-27 -34 -263 -107 -450 l-38 -97 31 6 c39 7 104 44 133 75 12 13 36 48 54 78
17 30 28 47 25 38 -10 -33 19 -24 36 11 10 23 17 29 17 18 1 -11 -5 -31 -13
-45 -7 -15 -19 -39 -26 -55 -15 -31 -25 -34 -34 -11 -3 8 -2 12 4 9 5 -3 14 5
20 17 10 21 10 22 -4 5 -8 -10 -18 -19 -23 -19 -4 -1 -17 -13 -28 -27 -11 -14
-32 -37 -47 -49 -16 -13 -28 -30 -28 -38 0 -22 -85 -35 -137 -21 -27 7 -37 -4
-114 -124 -54 -85 -59 -98 -54 -132 6 -35 3 -43 -48 -105 -61 -74 -191 -202
-249 -246 -37 -27 -39 -28 -63 -12 -14 9 -30 14 -36 10 -6 -4 -15 -1 -19 6 -6
9 -13 9 -31 -3 -39 -26 -162 -69 -181 -64 -10 3 -16 1 -13 -3 3 -5 -3 -11 -14
-15 -11 -3 -25 -22 -31 -41 -7 -19 -27 -57 -46 -85 -40 -60 -35 -83 8 -42 29
27 88 135 88 161 0 6 5 12 10 12 13 0 14 0 -15 -64 -37 -83 -74 -135 -109
-151 -17 -8 -38 -19 -46 -24 -39 -25 -109 -51 -136 -51 -16 1 -42 7 -59 14
-28 12 -26 12 37 11 36 0 65 2 62 6 -2 4 8 10 23 14 14 3 37 15 50 25 14 11
32 16 46 13 18 -5 20 -3 10 7 -10 11 -30 9 -110 -8 -163 -36 -178 -37 -209
-13 -37 29 -53 54 -80 120 l-23 55 -68 17 c-112 29 -158 43 -164 52 -3 4 -18
-4 -33 -18 -15 -14 -32 -25 -39 -24 -7 0 -2 7 11 16 22 16 29 33 13 33 -5 0
-33 -16 -62 -36 -61 -41 -75 -52 -41 -35 13 7 26 11 28 8 8 -7 -68 -35 -117
-42 -59 -9 -104 10 -168 70 -88 83 -111 173 -87 345 l7 55 -60 84 c-34 46 -61
88 -61 92 0 17 -67 39 -118 39 -102 0 -187 64 -240 178 -21 46 -25 71 -25 134
1 101 32 169 113 254 l60 62 0 142 0 142 -44 42 c-59 58 -91 110 -112 180 -55
194 90 416 272 416 73 0 93 12 141 83 23 34 58 85 79 114 36 50 36 53 25 97
-56 222 72 425 270 429 40 1 64 -2 66 -10 3 -7 11 -9 20 -6 12 5 14 3 8 -7 -6
-10 -4 -12 8 -7 9 3 16 2 14 -2 -4 -16 75 -71 103 -71 14 0 58 11 96 23 38 13
93 30 122 37 l52 12 39 82 c42 87 72 122 136 155 47 25 36 24 98 7z m82 4 c3
-5 1 -10 -4 -10 -6 0 -11 5 -11 10 0 6 2 10 4 10 3 0 8 -4 11 -10z m-1730 -41
c9 -17 14 -33 11 -36 -4 -4 -36 49 -36 62 0 13 11 2 25 -26z m1225 -49 c15
-27 12 -45 -8 -70 l-19 -23 -21 21 c-24 24 -30 80 -10 100 14 14 43 0 58 -28z
m-1180 -42 c0 -38 -8 -52 -32 -56 -15 -2 -16 1 -7 28 6 16 15 28 19 25 4 -3 6
4 3 15 -3 11 0 20 6 20 6 0 11 -15 11 -32z m1222 -20 c-7 -7 -12 -8 -12 -2 0
6 3 14 7 17 3 4 9 5 12 2 2 -3 -1 -11 -7 -17z m-1967 -48 c-9 -16 -18 -30 -21
-30 -2 0 2 14 11 30 9 17 18 30 21 30 2 0 -2 -13 -11 -30z m35 10 c-6 -11 -13
-20 -16 -20 -2 0 0 9 6 20 6 11 13 20 16 20 2 0 0 -9 -6 -20z m2790 -21 c0 -4
-5 -11 -10 -14 -15 -9 -40 14 -40 36 0 18 1 19 25 3 14 -9 25 -20 25 -25z
m-2714 -11 c-14 -8 -15 -12 -5 -18 10 -7 10 -11 0 -24 -11 -13 -11 -16 2 -16
21 0 67 21 67 31 0 4 -6 10 -12 13 -7 3 -4 5 6 3 13 -1 23 -14 29 -37 8 -33
10 -34 23 -16 7 11 17 17 20 13 3 -3 17 -2 30 3 39 15 28 1 -13 -17 -28 -12
-33 -18 -20 -21 10 -2 30 5 45 15 33 22 60 25 58 5 -1 -9 10 -15 33 -17 22 -2
41 -11 51 -25 16 -21 48 -20 35 1 -4 5 -4 9 -1 9 2 0 12 3 21 6 17 7 18 -15 1
-28 -6 -4 -5 -12 2 -21 7 -7 8 -18 4 -22 -4 -5 -1 -5 6 -1 10 6 10 11 1 22
-16 20 3 17 27 -3 23 -21 44 -27 44 -13 0 6 -5 10 -11 10 -6 0 -17 7 -25 15
-9 8 -12 15 -7 15 5 0 14 -5 21 -12 7 -7 12 -9 12 -4 0 16 31 -25 33 -43 0
-11 5 -17 9 -15 5 3 6 9 4 12 -2 4 14 6 37 3 37 -3 39 -5 22 -17 -17 -13 -16
-14 9 -23 35 -14 34 -35 -1 -28 -26 5 -26 4 -9 -9 12 -8 24 -10 30 -5 12 10
39 -13 28 -23 -3 -4 2 -4 12 0 17 7 17 8 -4 24 -14 10 -20 22 -15 29 5 9 11 7
21 -6 13 -17 15 -17 30 2 16 19 16 19 10 -13 -3 -21 -2 -31 4 -27 6 4 13 -1
16 -10 5 -12 14 -15 33 -10 17 4 21 3 13 -3 -18 -12 40 -34 66 -26 13 5 14 4
3 -4 -11 -8 -10 -12 5 -20 15 -8 16 -13 6 -25 -7 -8 -10 -22 -6 -31 5 -12 10
-13 25 -5 11 5 17 14 14 20 -4 5 1 9 10 9 11 0 15 -5 11 -15 -19 -46 -19 -50
-3 -30 9 11 17 26 17 33 0 6 7 12 16 12 15 0 15 -2 2 -22 -160 -244 -259 -494
-315 -793 -20 -111 -28 -417 -14 -551 6 -60 22 -158 36 -218 14 -60 22 -112
19 -115 -4 -3 -9 0 -11 7 -3 6 -9 12 -15 12 -6 0 -8 -7 -4 -15 4 -12 1 -13
-12 -7 -9 5 -30 5 -47 1 -20 -4 -23 -7 -10 -8 17 -1 17 -3 5 -11 -11 -7 -18
-3 -27 13 -10 17 -12 18 -13 5 0 -9 -5 -20 -12 -24 -7 -4 -8 -3 -4 4 4 7 1 12
-8 12 -10 0 -13 -6 -10 -15 8 -19 -3 -19 -22 -1 -11 11 -11 16 -1 19 9 4 9 6
0 6 -17 1 -36 -36 -27 -52 6 -8 3 -8 -8 1 -14 11 -20 10 -38 -8 -19 -19 -21
-19 -18 -3 2 10 -2 17 -9 15 -17 -3 -16 3 3 22 8 9 11 16 5 16 -5 0 -13 -5
-16 -10 -4 -6 -11 -7 -17 -4 -7 5 -8 2 -4 -5 5 -8 0 -14 -13 -18 -12 -3 -21
-10 -21 -17 -1 -6 -6 -5 -13 4 -13 17 -42 26 -33 11 4 -5 2 -12 -3 -15 -5 -3
-11 1 -14 8 -8 20 16 38 39 30 16 -5 16 -4 4 5 -20 15 -23 14 -49 -10 -16 -15
-30 -19 -49 -15 -26 5 -26 5 3 -8 22 -11 32 -11 38 -3 6 8 7 7 4 -3 -6 -23
-40 -23 -64 0 -12 11 -24 16 -28 11 -3 -5 1 -11 7 -14 7 -2 10 -8 6 -12 -11
-12 -28 5 -28 28 -1 18 -3 17 -14 -9 -9 -21 -23 -33 -40 -36 -14 -3 -26 -1
-26 4 0 5 -4 7 -10 3 -5 -3 -7 -12 -3 -20 3 -8 0 -15 -6 -15 -6 0 -11 10 -11
22 0 17 -3 19 -12 10 -17 -17 -41 -15 -34 3 8 23 -2 18 -34 -15 -23 -23 -30
-27 -30 -14 0 9 7 22 17 29 13 9 13 14 3 20 -9 6 -11 4 -5 -5 6 -10 4 -12 -10
-7 -11 5 -22 1 -31 -10 -13 -17 -14 -17 -8 0 7 20 -6 23 -24 5 -9 -9 -12 -9
-12 0 0 7 5 12 10 12 6 0 10 7 10 15 0 8 -4 15 -10 15 -5 0 -10 -5 -10 -11 0
-6 -8 -9 -18 -7 -12 3 -18 -1 -18 -12 0 -11 6 -16 15 -12 9 3 12 1 7 -6 -10
-17 -26 -15 -33 6 -13 37 -25 44 -44 26 -11 -10 -22 -14 -26 -11 -3 4 -1 7 5
7 7 0 12 10 11 23 0 21 -1 21 -8 2 -8 -19 -8 -19 -16 3 -6 19 -12 23 -36 20
-26 -4 -49 16 -34 30 3 3 5 0 5 -6 0 -7 5 -12 12 -12 7 0 3 10 -10 22 -28 29
-33 22 -21 -31 5 -25 8 -51 7 -60 -10 -45 -62 285 -79 493 -32 398 56 934 214
1310 55 131 106 231 116 228 7 -1 10 2 7 7 -9 14 15 61 27 54 6 -3 7 -1 3 5
-9 16 15 51 31 45 7 -3 13 0 13 6 0 7 13 10 35 7 33 -4 35 -3 29 17 -6 21 -6
21 12 4 19 -18 19 -18 0 -29z m-161 -68 c-9 -16 -18 -30 -21 -30 -2 0 2 14 11
30 9 17 18 30 21 30 2 0 -2 -13 -11 -30z m450 9 c11 -17 -1 -21 -15 -4 -8 9
-8 15 -2 15 6 0 14 -5 17 -11z m45 1 c0 -5 -4 -10 -10 -10 -5 0 -10 5 -10 10
0 6 5 10 10 10 6 0 10 -4 10 -10z m3101 -23 c-10 -9 -11 -8 -5 6 3 10 9 15 12
12 3 -3 0 -11 -7 -18z m-846 -5 c-3 -3 -11 0 -18 7 -9 10 -8 11 6 5 10 -3 15
-9 12 -12z m-2253 -4 c-9 -9 -15 -9 -24 0 -9 9 -7 12 12 12 19 0 21 -3 12 -12z
m123 -17 c-3 -6 -11 -11 -16 -11 -5 0 -4 6 3 14 14 16 24 13 13 -3z m2569 3
c5 -13 3 -14 -6 -6 -7 5 -22 12 -33 15 -16 4 -14 5 6 6 17 1 29 -5 33 -15z
m-369 -12 c-3 -3 -11 0 -18 7 -9 10 -8 11 6 5 10 -3 15 -9 12 -12z m-2854 -15
c-10 -9 -11 -8 -5 6 3 10 9 15 12 12 3 -3 0 -11 -7 -18z m3555 -12 c-23 -17
-42 -19 -51 -6 -3 5 9 12 27 14 18 2 35 4 38 5 3 1 -4 -5 -14 -13z m-3575 -28
c-10 -9 -11 -8 -5 6 3 10 9 15 12 12 3 -3 0 -11 -7 -18z m-20 -44 c-12 -20
-14 -14 -5 12 4 9 9 14 11 11 3 -2 0 -13 -6 -23z m-30 -70 c-12 -20 -14 -14
-5 12 4 9 9 14 11 11 3 -2 0 -13 -6 -23z m4109 -57 c0 -2 -7 -9 -15 -16 -13
-11 -14 -10 -9 4 5 14 24 23 24 12z m-647 -74 c5 -48 17 -69 17 -29 0 14 5 29
12 33 8 5 9 -2 4 -27 -4 -19 -10 -49 -13 -66 -6 -37 -14 -41 -33 -18 -11 13
-11 18 0 28 10 10 11 9 5 -3 -7 -12 -6 -13 6 -2 9 9 10 15 3 20 -6 4 -12 32
-13 62 -3 63 6 65 12 2z m577 3 c-7 -9 -28 -15 -49 -14 l-36 1 40 13 c54 17
60 18 45 0z m-2757 -36 c15 -21 17 -33 10 -55 -5 -15 -17 -32 -27 -38 -14 -9
-22 -6 -42 17 -28 33 -30 54 -8 85 20 28 41 25 67 -9z m3147 -293 c0 -3 -4 -8
-10 -11 -5 -3 -10 -1 -10 4 0 6 5 11 10 11 6 0 10 -2 10 -4z m-732 -61 c12
-11 -5 -10 -38 2 l-35 14 34 -6 c19 -3 37 -7 39 -10z m662 -30 c-7 -8 -24 -15
-39 -15 l-26 1 30 14 c40 18 50 18 35 0z m-533 -312 c-3 -10 -5 -4 -5 12 0 17
2 24 5 18 2 -7 2 -21 0 -30z m31 -41 c-11 -31 -26 -64 -34 -72 -18 -19 -18 -1
1 24 19 25 19 36 -1 36 -8 0 -12 -4 -9 -10 3 -5 1 -10 -5 -10 -6 0 -9 -3 -7
-7 3 -5 -9 -21 -26 -38 l-30 -30 21 30 c11 17 27 46 35 65 9 19 16 29 16 23 2
-25 20 -12 32 21 7 19 16 33 20 30 4 -2 -2 -30 -13 -62z m-108 -116 c0 -2 -8
-10 -17 -17 -16 -13 -17 -12 -4 4 13 16 21 21 21 13z m-10 -53 c0 -5 -5 -15
-10 -23 -8 -12 -10 -11 -10 8 0 12 5 22 10 22 6 0 10 -3 10 -7z m836 -18 c-11
-8 -25 -15 -30 -15 -6 0 -2 7 8 15 11 8 25 15 30 15 6 0 2 -7 -8 -15z m-3601
-105 c8 -25 -11 -67 -35 -80 -54 -29 -84 70 -33 109 24 20 27 20 44 5 10 -9
21 -24 24 -34z m3006 -195 c0 -16 -3 -48 -6 -70 -7 -48 -13 -143 -7 -127 5 17
72 -54 72 -78 0 -12 -4 -18 -10 -15 -5 3 -10 -1 -10 -9 0 -9 -4 -16 -10 -16
-5 0 -10 8 -10 17 0 12 -3 14 -10 7 -7 -7 -5 -21 6 -42 8 -18 17 -32 19 -32 9
0 41 78 39 93 -1 11 5 17 18 17 11 0 34 10 51 22 18 12 27 16 21 8 -6 -8 -14
-28 -17 -45 -3 -16 -12 -59 -21 -95 -8 -36 -15 -68 -16 -72 0 -9 26 -4 41 9
11 8 17 7 27 -3 7 -7 12 -16 11 -19 0 -3 1 -11 4 -18 3 -9 7 -9 19 1 13 11 16
8 16 -15 0 -41 -15 -63 -43 -63 -14 0 -25 -4 -25 -10 0 -5 7 -10 15 -10 8 0
15 -9 15 -20 0 -11 -4 -20 -10 -20 -5 0 -10 -7 -10 -15 0 -18 -12 -19 -28 -3
-9 9 -16 6 -30 -10 -19 -21 -42 -29 -42 -14 0 4 6 18 13 32 26 49 38 92 25 88
-7 -3 -15 -15 -19 -29 -3 -13 -11 -23 -18 -21 -7 1 -10 -2 -6 -8 3 -5 1 -18
-4 -27 -6 -10 -11 -12 -11 -5 0 24 -19 12 -23 -15 -4 -27 -4 -26 -6 4 -2 56
-40 52 -41 -4 0 -13 -6 -23 -12 -23 -8 0 -9 -3 -3 -8 6 -4 16 -19 22 -33 11
-25 10 -26 -19 -23 -25 3 -31 -1 -41 -26 -6 -17 -15 -30 -20 -30 -13 0 3 42
24 66 11 11 19 33 19 48 0 25 -2 27 -17 15 -13 -11 -17 -11 -20 -1 -10 29 -23
9 -17 -28 4 -27 3 -40 -5 -40 -6 0 -11 13 -11 28 0 21 -5 28 -20 29 -11 1 -20
-2 -20 -7 0 -4 -9 -6 -20 -3 -11 3 -20 0 -20 -6 0 -6 7 -11 15 -11 12 0 15 -9
13 -37 -2 -42 -20 -67 -35 -52 -5 5 -8 -5 -6 -29 2 -20 0 -31 -3 -24 -9 19
-24 14 -24 -8 0 -11 -3 -19 -7 -18 -20 6 -53 -29 -53 -54 0 -16 -4 -28 -10
-28 -5 0 -10 13 -10 29 0 17 -6 31 -16 35 -10 4 -14 1 -12 -6 6 -17 -43 -60
-60 -53 -10 3 -12 0 -8 -10 3 -8 1 -15 -4 -15 -17 0 -18 15 -4 35 12 16 16 17
23 6 7 -11 11 -9 21 9 11 20 10 22 -4 17 -14 -6 -15 -3 -6 14 6 11 15 17 19
15 4 -3 8 0 8 7 0 7 15 34 34 62 19 27 66 113 105 191 48 97 75 139 85 136 12
-3 12 -2 0 6 -11 8 -8 26 17 103 56 178 82 294 98 449 l8 75 9 -70 c4 -38 8
-83 8 -100z m-2991 120 c-7 -9 -15 -13 -19 -10 -3 3 1 10 9 15 21 14 24 12 10
-5z m3033 -269 c-3 -4 -9 -2 -14 5 -13 22 -11 31 5 17 8 -7 12 -17 9 -22z
m108 -19 l-24 -22 19 27 c10 14 21 24 23 22 3 -3 -6 -15 -18 -27z m-35 -2 c-1
-20 -6 -25 -26 -24 -16 1 -19 3 -8 6 9 2 20 13 23 24 9 26 13 24 11 -6z m-47
-6 c-7 -4 -17 -5 -22 -2 -5 3 -3 9 4 14 7 4 17 5 22 2 5 -3 3 -9 -4 -14z m124
1 c-5 -19 -23 -29 -23 -12 0 7 20 32 26 32 1 0 0 -9 -3 -20z m-63 -49 c0 -9
-24 -21 -41 -21 -16 0 -10 18 9 23 28 8 32 7 32 -2z m10 -178 c-11 -17 -11
-17 -6 0 3 10 7 26 7 35 1 15 2 15 6 0 2 -10 -1 -25 -7 -35z m104 13 c-5 -14
-9 -15 -15 -5 -5 8 -3 17 4 21 15 9 19 4 11 -16z m-3330 -42 c20 -20 21 -35 1
-28 -8 4 -12 10 -9 15 3 5 0 9 -5 9 -6 0 -11 5 -11 10 0 14 6 13 24 -6z m-134
-24 c0 -5 -5 -10 -11 -10 -5 0 -7 5 -4 10 3 6 8 10 11 10 2 0 4 -4 4 -10z
m-760 -19 c0 -5 -7 -11 -14 -14 -10 -4 -13 -1 -9 9 6 15 23 19 23 5z m345 -30
c-3 -12 -11 -19 -16 -16 -5 4 -9 0 -10 -7 0 -10 -2 -10 -6 0 -2 6 -9 10 -14 6
-5 -3 -9 0 -9 5 0 6 6 11 14 11 7 0 19 7 26 15 16 20 24 13 15 -14z m575 19
c0 -5 -2 -10 -4 -10 -3 0 -8 5 -11 10 -3 6 -1 10 4 10 6 0 11 -4 11 -10z
m-1053 -32 c-3 -8 -6 -5 -6 6 -1 11 2 17 5 13 3 -3 4 -12 1 -19z m541 -4 c-25
-28 -24 -28 -31 -10 -4 11 -1 13 10 9 12 -5 15 -2 11 8 -4 10 1 15 12 16 17 2
17 0 -2 -23z m-346 -6 c-7 -7 -16 -6 -29 1 -16 11 -15 11 6 5 17 -4 21 -3 16
6 -6 9 -4 11 4 5 9 -5 9 -11 3 -17z m143 4 c-9 -9 -35 -11 -35 -3 0 14 12 20
26 14 8 -3 12 -8 9 -11z m18 -27 c-3 -9 -8 -14 -10 -11 -3 3 -2 9 2 15 9 16
15 13 8 -4z m3272 -41 c-15 -25 -45 -71 -67 -102 -32 -45 -39 -51 -34 -29 5
19 3 26 -4 22 -5 -3 -10 -1 -10 5 0 7 7 9 16 6 11 -4 28 15 62 69 51 81 81
105 37 29z m-3125 26 c0 -5 -5 -10 -11 -10 -5 0 -7 5 -4 10 3 6 8 10 11 10 2
0 4 -4 4 -10z m-90 -33 c0 -2 -10 -12 -22 -23 l-23 -19 19 23 c18 21 26 27 26
19z m138 -13 c12 -8 22 -12 22 -8 0 4 11 -3 25 -16 49 -46 19 -56 -35 -11 -19
15 -45 31 -58 35 -32 11 -75 -1 -69 -18 3 -8 -2 -16 -12 -19 -26 -6 -54 -72
-46 -107 8 -35 -10 -41 -19 -7 -5 23 7 82 22 102 4 6 22 23 40 38 39 31 94 36
130 11z m-521 -16 c-3 -8 -6 -5 -6 6 -1 11 2 17 5 13 3 -3 4 -12 1 -19z m4267
-34 c3 -8 2 -12 -4 -9 -6 3 -10 10 -10 16 0 14 7 11 14 -7z m-115 -30 c-6 -8
-17 -14 -23 -13 -7 0 -7 2 1 5 7 3 9 12 6 20 -4 10 0 12 11 8 13 -5 14 -9 5
-20z m-210 4 c0 -7 -4 -22 -9 -33 -7 -17 -9 -15 -9 13 -1 17 4 32 9 32 6 0 10
-6 9 -12z m290 -1 c-2 -1 -12 -9 -22 -16 -15 -12 -17 -12 -11 3 3 9 13 16 22
16 8 0 13 -1 11 -3z m27 -23 c-5 -14 -4 -15 9 -4 8 7 15 8 15 2 0 -14 -28 -23
-35 -11 -4 5 -12 6 -18 2 -7 -4 -6 0 2 10 17 22 35 22 27 1z m-79 0 c-3 -3
-12 -4 -19 -1 -8 3 -5 6 6 6 11 1 17 -2 13 -5z m-225 -41 c-3 -16 -7 -22 -10
-15 -4 13 4 42 11 42 2 0 2 -12 -1 -27z m138 11 c0 -8 -19 -13 -24 -6 -3 5 1
9 9 9 8 0 15 -2 15 -3z m110 -3 c0 -11 -31 -24 -39 -16 -3 3 1 10 9 15 19 12
30 12 30 1z m30 -16 c-7 -8 -17 -15 -22 -15 -6 0 -5 7 2 15 7 8 17 15 22 15 6
0 5 -7 -2 -15z m-2870 -16 c16 -29 5 -65 -25 -85 -20 -13 -28 -14 -40 -4 -21
18 -19 66 5 90 26 26 46 25 60 -1z m2677 6 c0 -8 -4 -15 -9 -15 -5 0 -14 -13
-19 -30 -6 -16 -15 -30 -20 -30 -5 0 -9 -7 -9 -15 0 -8 -9 -24 -20 -35 -11
-11 -20 -27 -20 -35 0 -8 -11 -22 -25 -31 -14 -9 -25 -22 -25 -28 0 -7 -8 -21
-19 -32 -10 -11 -22 -30 -25 -42 -9 -26 -19 -28 -37 -5 -12 15 -12 16 4 10 10
-4 17 -2 17 5 0 6 10 19 22 29 23 21 18 39 -6 20 -13 -11 -13 -9 -3 13 7 14
15 26 19 26 4 0 10 16 14 35 7 37 13 42 32 23 7 -7 12 -8 12 -2 0 6 -5 15 -10
20 -14 14 -1 46 16 40 8 -3 14 -1 14 4 0 6 10 10 23 10 16 0 27 11 41 40 20
41 33 51 33 25z m93 5 c13 -8 13 -10 -2 -10 -9 0 -20 5 -23 10 -8 13 5 13 25
0z m-64 -27 c-8 -21 -8 -22 2 -25 4 -1 13 -8 21 -15 12 -12 12 -17 -2 -30 -15
-15 -16 -15 -11 4 4 14 0 23 -13 27 -10 4 -19 2 -21 -3 -2 -6 -8 -11 -14 -11
-5 0 0 13 11 29 12 16 21 35 21 42 0 7 3 10 6 6 4 -3 3 -14 0 -24z m-76 -3 c0
-5 -9 -10 -20 -10 -11 0 -20 5 -20 10 0 6 9 10 20 10 11 0 20 -4 20 -10z
m-2600 -70 c0 -5 -5 -10 -11 -10 -5 0 -7 5 -4 10 3 6 8 10 11 10 2 0 4 -4 4
-10z m2634 -15 c3 -8 1 -14 -4 -12 -5 1 -16 -7 -25 -18 -13 -16 -13 -14 1 13
21 37 20 36 28 17z m-284 -60 c0 -8 -4 -15 -10 -15 -5 0 -10 7 -10 15 0 8 5
15 10 15 6 0 10 -7 10 -15z m233 -10 c-3 -9 -8 -14 -10 -11 -3 3 -2 9 2 15 9
16 15 13 8 -4z m-3143 -5 c0 -5 -4 -10 -10 -10 -5 0 -10 5 -10 10 0 6 5 10 10
10 6 0 10 -4 10 -10z m2640 -73 c-26 -48 -49 -77 -61 -77 -5 0 7 20 25 45 19
24 38 54 41 66 4 11 9 18 13 15 3 -4 -5 -25 -18 -49z m630 33 c0 -5 -4 -10
-10 -10 -5 0 -10 5 -10 10 0 6 5 10 10 10 6 0 10 -4 10 -10z m-3410 -10 c0 -5
-5 -10 -11 -10 -5 0 -7 5 -4 10 3 6 8 10 11 10 2 0 4 -4 4 -10z m3288 -16 c0
-17 -3 -22 -8 -13 -5 6 -6 18 -3 26 8 19 11 16 11 -13z m-554 -20 c3 -8 2 -12
-4 -9 -6 3 -11 1 -11 -4 -1 -6 -3 -14 -4 -18 -2 -5 -6 -17 -9 -28 -8 -24 -76
-65 -108 -65 -20 1 -21 2 -5 11 9 5 22 7 27 4 6 -4 9 -2 8 3 -2 5 18 30 45 57
26 27 47 52 47 57 0 13 7 9 14 -8z m786 -18 c0 -3 -4 -8 -10 -11 -5 -3 -10 -1
-10 4 0 6 5 11 10 11 6 0 10 -2 10 -4z m-400 -47 c0 -5 -4 -9 -10 -9 -5 0 -10
7 -10 16 0 8 5 12 10 9 6 -3 10 -10 10 -16z m127 -11 c-3 -8 -6 -5 -6 6 -1 11
2 17 5 13 3 -3 4 -12 1 -19z m241 0 c-20 -34 -51 -68 -62 -68 -5 0 0 9 13 21
15 14 20 27 16 42 -5 17 -4 19 4 7 9 -12 11 -12 17 3 3 9 10 17 15 17 5 0 4
-10 -3 -22z m47 3 c-3 -6 -11 -11 -16 -11 -5 0 -4 6 3 14 14 16 24 13 13 -3z
m-3805 -6 c0 -8 -4 -15 -10 -15 -5 0 -10 7 -10 15 0 8 5 15 10 15 6 0 10 -7
10 -15z m3500 -44 c-4 -15 -6 -41 -3 -57 5 -28 5 -28 -10 -9 -10 13 -12 25 -6
37 5 9 10 28 11 42 1 13 5 23 9 20 4 -2 4 -17 -1 -33z m62 -40 c7 11 9 9 5 -8
-3 -13 -1 -23 4 -23 5 0 9 -8 9 -17 0 -15 -4 -13 -20 7 -13 16 -19 39 -18 65
l1 40 4 -39 c3 -31 7 -36 15 -25z m-692 29 c13 0 13 -1 0 -10 -19 -12 -97 -13
-105 -1 -6 11 39 20 70 15 11 -2 27 -4 35 -4z m820 -50 c-12 -22 -35 -26 -46
-8 -5 7 -2 9 9 5 9 -3 18 0 21 9 3 8 10 14 16 14 8 0 8 -6 0 -20z m-75 -19
c-3 -5 3 -12 12 -14 11 -3 8 -5 -9 -6 -20 -1 -26 3 -22 14 4 8 10 15 16 15 5
0 7 -4 3 -9z m-2425 -40 c14 -12 21 -21 15 -21 -5 0 -26 14 -45 31 -37 32 -13
24 30 -10z m2407 -33 c27 -2 30 -5 22 -20 -5 -10 -17 -18 -26 -18 -12 0 -13 3
-4 14 9 11 5 15 -18 19 -16 4 -39 16 -50 28 -34 37 -24 46 12 11 20 -19 44
-32 64 -34z m-2360 1 c14 -14 -11 -44 -28 -33 -8 4 -7 9 2 15 11 7 9 9 -6 9
-17 0 -17 2 -5 10 19 13 24 12 37 -1z m451 -31 c3 -29 -30 -72 -51 -65 -20 6
-20 57 -1 78 24 26 48 20 52 -13z m-388 -13 c5 3 11 2 13 -2 3 -5 -14 -9 -39
-9 -24 -1 -41 3 -38 8 3 5 14 6 25 3 12 -4 19 -2 20 7 0 10 2 10 6 0 2 -6 9
-10 13 -7z m96 -53 c-5 -4 -66 26 -66 33 0 3 16 -3 35 -12 19 -9 33 -18 31
-21z m44 -18 c0 -2 -7 -4 -15 -4 -8 0 -15 4 -15 10 0 5 7 7 15 4 8 -4 15 -8
15 -10z m58 -38 c-7 -8 -15 -12 -17 -11 -5 6 10 25 20 25 5 0 4 -6 -3 -14z
m1148 -38 c-24 -27 -36 -52 -37 -72 0 -17 -3 -25 -6 -18 -10 25 8 80 34 106
41 42 48 30 9 -16z m-1126 -89 c0 -10 -6 -19 -12 -19 -9 0 -8 -4 2 -11 13 -9
13 -10 0 -6 -8 2 -16 18 -18 35 -3 25 0 31 12 26 9 -3 16 -15 16 -25z m2106
-17 c-14 -14 -17 -14 -14 -2 3 17 20 31 27 24 3 -2 -3 -12 -13 -22z m-351 -42
c-3 -5 -12 -10 -18 -10 -7 0 -6 4 3 10 19 12 23 12 15 0z m-575 -35 c0 -8 -4
-15 -9 -15 -13 0 -22 16 -14 24 11 11 23 6 23 -9z m537 -17 c-3 -8 -6 -5 -6 6
-1 11 2 17 5 13 3 -3 4 -12 1 -19z m-1117 -18 c0 -5 -4 -10 -10 -10 -5 0 -10
5 -10 10 0 6 5 10 10 10 6 0 10 -4 10 -10z m100 -65 c-7 -9 -15 -13 -19 -10
-3 3 1 10 9 15 21 14 24 12 10 -5z m59 -1 c-7 -9 -23 -20 -35 -24 -11 -5 -29
-24 -38 -44 -9 -20 -19 -36 -21 -36 -9 0 16 65 32 83 28 31 87 51 62 21z
m1051 -44 c0 -5 -4 -10 -10 -10 -5 0 -10 5 -10 10 0 6 5 10 10 10 6 0 10 -4
10 -10z m-1160 -62 c-4 -49 -5 -50 -8 -14 -3 34 2 66 10 66 2 0 1 -24 -2 -52z
m63 32 c-3 -12 -8 -19 -11 -16 -5 6 5 36 12 36 2 0 2 -9 -1 -20z m-36 -72 c-3
-7 -5 -2 -5 12 0 14 2 19 5 13 2 -7 2 -19 0 -25z m38 23 c3 -5 1 -12 -5 -16
-5 -3 -10 1 -10 9 0 18 6 21 15 7z m33 -87 c25 -11 26 -12 7 -19 -11 -5 -29
-15 -39 -24 -11 -9 -16 -10 -12 -3 5 7 -4 22 -24 38 -17 15 -28 29 -26 32 3 3
17 -7 30 -21 14 -15 30 -27 36 -27 13 0 6 15 -24 50 l-21 25 23 -20 c13 -11
36 -25 50 -31z m-145 -95 c-8 -8 -16 -8 -30 0 -16 9 -14 10 12 11 21 0 26 -3
18 -11z m-33 -79 c0 -5 -7 -10 -16 -10 -8 0 -12 5 -9 10 3 6 10 10 16 10 5 0
9 -4 9 -10z m-70 -102 c0 -19 -2 -20 -10 -8 -13 19 -13 30 0 30 6 0 10 -10 10
-22z m-20 -13 c0 -8 -4 -15 -10 -15 -5 0 -10 7 -10 15 0 8 5 15 10 15 6 0 10
-7 10 -15z m87 -47 c-3 -7 -5 -2 -5 12 0 14 2 19 5 13 2 -7 2 -19 0 -25z"/>
        <path d="M4504 1854 c-18 -14 -18 -15 4 -4 12 6 22 13 22 15 0 8 -5 6 -26 -11z"/>
        <path d="M4435 1825 c-25 -12 -26 -14 -5 -9 28 7 60 23 45 23 -5 0 -23 -6 -40
-14z"/>
        <path d="M2090 4580 c0 -5 5 -10 10 -10 6 0 10 5 10 10 0 6 -4 10 -10 10 -5 0
-10 -4 -10 -10z"/>
        <path d="M1945 4540 c-3 -5 -2 -10 4 -10 5 0 13 5 16 10 3 6 2 10 -4 10 -5 0
-13 -4 -16 -10z"/>
        <path d="M2240 4481 c0 -9 30 -24 36 -18 2 1 -6 8 -16 15 -11 7 -20 8 -20 3z"/>
        <path d="M2550 4310 c0 -5 5 -10 11 -10 5 0 7 5 4 10 -3 6 -8 10 -11 10 -2 0
-4 -4 -4 -10z"/>
        <path d="M2638 4296 c-4 -17 -1 -23 9 -19 14 6 18 43 4 43 -5 0 -11 -11 -13
-24z"/>
        <path d="M2174 4255 c-34 -14 -77 -62 -68 -76 3 -5 17 -1 30 10 33 26 104 37
135 20 22 -11 23 -11 10 5 -8 9 -12 19 -9 21 8 8 80 -70 93 -101 11 -23 14
-25 14 -9 1 32 -41 97 -77 118 -41 24 -89 29 -128 12z m86 -13 c0 -5 -13 -7
-29 -4 -15 2 -44 -4 -62 -13 l-34 -16 24 21 c23 20 101 29 101 12z"/>
        <path d="M2205 3626 c-39 -17 -85 -71 -85 -99 0 -18 2 -19 10 -7 5 8 10 22 10
32 0 9 14 28 31 42 63 53 168 26 210 -54 11 -19 19 -28 19 -20 0 26 -38 78
-67 94 -45 22 -95 27 -128 12z"/>
        <path d="M2208 3603 c-36 -9 -16 -18 42 -18 51 0 57 2 43 13 -17 12 -51 14
-85 5z"/>
        <path d="M2159 3563 c-13 -16 -12 -17 4 -4 9 7 17 15 17 17 0 8 -8 3 -21 -13z"/>
        <path d="M1580 2999 c-61 -25 -113 -108 -91 -146 9 -15 10 -11 11 19 0 59 33
89 100 93 30 1 66 -1 80 -6 24 -9 24 -9 5 7 -14 11 -35 14 -72 11 -29 -2 -53
-2 -53 -1 0 2 19 8 41 14 51 14 117 -7 149 -47 11 -14 20 -21 20 -16 0 17 -42
55 -76 69 -38 16 -78 17 -114 3z"/>
        <path d="M1539 2923 c-13 -16 -12 -17 4 -4 9 7 17 15 17 17 0 8 -8 3 -21 -13z"/>
        <path d="M2416 2614 c-3 -8 -2 -12 3 -9 5 3 12 1 15 -4 4 -5 -2 -12 -11 -14
-14 -4 -13 -5 4 -6 27 -1 40 17 19 25 -9 3 -13 10 -10 15 3 5 1 9 -4 9 -6 0
-13 -7 -16 -16z"/>
        <path d="M2250 2580 c0 -5 5 -10 10 -10 6 0 10 5 10 10 0 6 -4 10 -10 10 -5 0
-10 -4 -10 -10z"/>
        <path d="M2150 2571 c0 -6 4 -12 8 -15 5 -3 9 1 9 9 0 8 -4 15 -9 15 -4 0 -8
-4 -8 -9z"/>
        <path d="M2054 2562 c3 -5 0 -13 -6 -15 -8 -3 -6 -6 5 -6 19 -1 23 14 5 25 -6
4 -8 3 -4 -4z"/>
        <path d="M1621 2552 c-1 -17 24 -26 45 -14 11 6 13 11 5 16 -6 4 -11 2 -11 -3
0 -15 -27 -14 -33 2 -4 9 -6 9 -6 -1z"/>
        <path d="M1905 2510 c3 -5 12 -7 20 -3 21 7 19 13 -6 13 -11 0 -18 -4 -14 -10z"/>
        <path d="M5585 2970 c-3 -5 -1 -10 4 -10 6 0 11 5 11 10 0 6 -2 10 -4 10 -3 0
-8 -4 -11 -10z"/>
        <path d="M5700 2700 c-11 -7 -11 -10 -2 -10 7 0 10 -4 7 -10 -3 -5 -2 -10 4
-10 5 0 9 9 8 20 -1 11 -1 20 -2 20 0 0 -7 -5 -15 -10z"/>
        <path d="M5593 2568 c2 -7 -2 -20 -9 -28 -7 -9 -14 -30 -16 -47 -1 -18 -6 -31
-11 -30 -5 1 -12 -4 -15 -12 -3 -8 0 -11 7 -7 6 4 11 2 11 -3 0 -8 7 -7 19 1
11 7 18 15 15 19 -2 4 -1 15 2 24 5 13 8 14 15 3 10 -15 13 51 3 76 -7 19 -28
22 -21 4z"/>
        <path d="M5762 2509 c-2 -19 2 -28 8 -24 12 7 14 55 2 55 -4 0 -9 -14 -10 -31z"/>
        <path d="M5723 2523 c-7 -3 -13 -9 -13 -15 0 -7 5 -6 14 1 11 9 13 6 9 -16 -3
-27 -3 -27 8 -5 13 24 3 43 -18 35z"/>
        <path d="M5786 2473 c-4 -9 -3 -20 1 -24 4 -4 9 3 9 17 2 28 -1 31 -10 7z"/>
        <path d="M5560 2360 c0 -5 5 -10 11 -10 5 0 7 5 4 10 -3 6 -8 10 -11 10 -2 0
-4 -4 -4 -10z"/>
        <path d="M5571 2274 c0 -11 3 -14 6 -6 3 7 2 16 -1 19 -3 4 -6 -2 -5 -13z"/>
        <path d="M5376 2241 c-4 -7 -5 -15 -2 -18 9 -9 19 4 14 18 -4 11 -6 11 -12 0z"/>
        <path d="M5348 2185 c-10 -13 -18 -29 -18 -36 0 -21 36 18 37 41 2 25 2 25
-19 -5z"/>
        <path d="M5279 2158 c-6 -21 -5 -37 2 -32 5 3 9 -2 9 -10 0 -28 18 -17 22 14
4 24 1 30 -14 30 -10 0 -18 -1 -19 -2z"/>
        <path d="M4540 5631 c0 -5 7 -11 15 -15 24 -9 55 -68 55 -106 0 -48 -32 -96
-77 -116 -27 -12 -33 -18 -21 -21 9 -2 27 1 40 7 l23 11 -24 -20 c-17 -16 -19
-21 -7 -21 23 0 86 59 80 75 -3 7 2 25 11 39 15 23 16 32 5 72 -13 47 -60 104
-86 104 -8 0 -14 -4 -14 -9z"/>
        <path d="M4458 5593 c7 -3 16 -2 19 1 4 3 -2 6 -13 5 -11 0 -14 -3 -6 -6z"/>
        <path d="M4460 5545 c0 -8 2 -15 4 -15 2 0 6 7 10 15 3 8 1 15 -4 15 -6 0 -10
-7 -10 -15z"/>
        <path d="M5140 5557 c0 -1 9 -20 20 -42 29 -58 26 -106 -9 -144 -20 -22 -38
-31 -59 -31 -17 0 -34 -4 -37 -10 -12 -19 62 -10 91 11 26 19 25 18 -4 -10
-38 -36 -18 -43 23 -8 26 22 32 41 42 128 4 39 1 50 -22 77 -22 27 -45 41 -45
29z"/>
        <path d="M5367 5099 c7 -7 15 -10 18 -7 3 3 -2 9 -12 12 -14 6 -15 5 -6 -5z"/>
        <path d="M2405 1972 c3 -3 -11 -16 -30 -29 -19 -13 -44 -41 -55 -63 -23 -45
-26 -112 -6 -129 12 -10 13 -6 6 24 -15 64 23 141 80 165 38 16 105 8 131 -16
10 -9 19 -13 19 -7 0 22 -41 45 -94 52 -31 4 -54 5 -51 3z"/>
        <path d="M2820 1962 c6 -13 14 -21 18 -18 3 4 -2 14 -12 24 -18 16 -18 16 -6
-6z"/>
        <path d="M2408 1933 c-36 -9 -17 -19 37 -19 30 1 55 4 55 9 0 4 -8 7 -17 7
-10 0 -27 2 -38 4 -11 2 -28 2 -37 -1z"/>
        <path d="M2586 1912 c-3 -6 -1 -14 5 -17 14 -9 20 -2 10 14 -6 8 -11 9 -15 3z"/>
        <path d="M2351 1869 c-21 -34 -28 -84 -13 -93 4 -3 9 11 9 30 1 19 9 46 18 60
9 14 14 28 11 31 -3 3 -14 -10 -25 -28z"/>
        <path d="M2930 1834 c0 -2 9 -8 20 -14 11 -6 20 -7 20 -2 0 6 -9 12 -20 15
-11 3 -20 3 -20 1z"/>
        <path d="M2566 1802 c5 -4 18 -18 27 -32 12 -18 17 -20 17 -8 0 19 -26 48 -43
48 -8 0 -9 -3 -1 -8z"/>
        <path d="M5895 1799 c-4 -6 -5 -12 -2 -15 2 -3 7 2 10 11 7 17 1 20 -8 4z"/>
        <path d="M2550 1701 c0 -6 4 -13 10 -16 6 -3 7 1 4 9 -7 18 -14 21 -14 7z"/>
        <path d="M2908 1692 c-9 -4 -31 -25 -48 -47 -27 -34 -31 -46 -27 -81 2 -23 12
-52 22 -65 14 -19 16 -20 9 -4 -4 11 -9 43 -12 71 -3 45 0 54 26 82 23 25 38
32 66 32 20 0 36 5 36 10 0 11 -46 12 -72 2z"/>
        <path d="M2684 1660 c0 -10 6 -16 13 -13 7 3 13 9 13 13 0 4 -6 10 -13 13 -7
3 -13 -3 -13 -13z"/>
        <path d="M2880 1615 c0 -8 2 -15 4 -15 2 0 6 7 10 15 3 8 1 15 -4 15 -6 0 -10
-7 -10 -15z"/>
        <path d="M2730 1550 c0 -5 5 -10 10 -10 6 0 10 5 10 10 0 6 -4 10 -10 10 -5 0
-10 -4 -10 -10z"/>
        <path d="M2986 1536 c6 -26 5 -28 -17 -21 -23 7 -23 6 -7 -11 14 -14 21 -15
30 -6 8 8 15 8 24 1 14 -11 34 -4 34 12 0 5 -9 9 -19 9 -11 0 -27 10 -36 23
-16 22 -16 22 -9 -7z"/>
        <path d="M5730 1549 c0 -5 5 -7 10 -4 6 3 10 8 10 11 0 2 -4 4 -10 4 -5 0 -10
-5 -10 -11z"/>
        <path d="M5699 1503 c-13 -16 -12 -17 4 -4 16 13 21 21 13 21 -2 0 -10 -8 -17
-17z"/>
        <path d="M3100 1478 c0 -4 -7 -8 -15 -8 -23 0 -18 -14 10 -27 14 -6 25 -7 25
-3 0 5 -6 10 -12 13 -7 2 -10 8 -6 12 5 5 20 3 34 -4 15 -6 29 -9 32 -6 4 3
-4 8 -16 12 -12 3 -22 9 -22 12 0 4 -7 8 -15 8 -8 0 -15 -4 -15 -9z"/>
        <path d="M2979 1444 c-22 -27 -18 -39 14 -41 27 -2 28 -1 15 15 -9 9 -13 23
-11 30 6 17 -2 15 -18 -4z m16 -24 c3 -6 -1 -7 -9 -4 -18 7 -21 14 -7 14 6 0
13 -4 16 -10z"/>
        <path d="M3085 1420 c10 -11 20 -20 23 -20 3 0 -3 9 -13 20 -10 11 -20 20 -23
20 -3 0 3 -9 13 -20z"/>
        <path d="M3247 1406 c-15 -33 -19 -35 -54 -30 -38 5 -38 5 -13 -10 14 -8 34
-13 45 -10 15 4 16 3 6 -4 -9 -7 -10 -12 -2 -16 6 -4 11 -4 11 1 0 4 5 1 10
-7 8 -13 11 -12 24 5 8 11 18 16 22 12 5 -4 3 -12 -5 -16 -10 -6 -9 -10 4 -15
24 -9 32 -7 15 4 -13 8 -12 10 3 10 26 0 20 17 -9 24 -20 5 -24 10 -16 18 9 9
16 7 30 -5 23 -21 50 -24 33 -4 -6 8 -29 19 -51 26 -34 10 -40 16 -35 32 10
30 0 22 -18 -15z m23 -56 c0 -5 -4 -10 -10 -10 -5 0 -10 5 -10 10 0 6 5 10 10
10 6 0 10 -4 10 -10z"/>
        <path d="M3223 1415 c0 -8 4 -12 9 -9 5 3 6 10 3 15 -9 13 -12 11 -12 -6z"/>
        <path d="M3180 1410 c-23 -7 -23 -8 -3 -9 12 -1 25 4 28 9 3 6 5 10 3 9 -2 -1
-14 -5 -28 -9z"/>
        <path d="M3830 1400 c-8 -5 -11 -12 -7 -16 4 -4 13 -2 19 4 15 15 7 24 -12 12z"/>
        <path d="M3890 1404 c0 -3 5 -14 10 -25 13 -23 30 -25 30 -4 0 8 -7 15 -16 15
-8 0 -12 5 -9 10 3 6 1 10 -4 10 -6 0 -11 -3 -11 -6z"/>
        <path d="M3530 1380 c0 -5 5 -10 10 -10 6 0 10 -12 10 -27 0 -19 3 -24 10 -17
8 8 7 19 -1 37 -12 27 -29 36 -29 17z"/>
        <path d="M3168 1315 c3 -20 7 -23 18 -14 9 8 18 7 31 -1 17 -11 17 -11 0 -6
-11 3 -15 2 -12 -4 3 -6 1 -10 -4 -10 -6 0 -11 -12 -11 -26 0 -21 -4 -25 -17
-19 -14 5 -15 4 -6 -6 16 -16 44 6 36 27 -3 8 5 17 21 24 27 10 59 4 51 -10
-3 -4 1 -10 9 -13 8 -3 17 1 20 9 3 9 1 12 -4 9 -6 -3 -10 -1 -10 4 0 6 -7 11
-15 11 -8 0 -15 5 -15 10 0 6 -9 10 -19 10 -11 0 -21 4 -23 8 -1 5 -15 12 -29
15 -24 6 -26 4 -21 -18z"/>
        <path d="M3806 1332 c-2 -4 4 -8 14 -8 10 0 16 4 14 8 -3 4 -9 8 -14 8 -5 0
-11 -4 -14 -8z"/>
        <path d="M3130 1310 c0 -5 5 -10 10 -10 6 0 10 5 10 10 0 6 -4 10 -10 10 -5 0
-10 -4 -10 -10z"/>
        <path d="M3086 1292 c-2 -4 4 -8 14 -8 10 0 16 4 14 8 -3 4 -9 8 -14 8 -5 0
-11 -4 -14 -8z"/>
        <path d="M3320 1275 c-10 -19 -27 -33 -47 -40 -41 -11 -42 -21 -3 -28 17 -4
30 -11 30 -17 0 -13 -16 -13 -41 0 -28 15 -23 -5 6 -24 30 -20 35 -20 35 -1 0
22 37 18 43 -5 6 -23 32 -27 40 -6 4 9 -3 16 -19 20 -13 4 -24 12 -24 19 0 7
-12 14 -27 15 -56 5 -43 22 21 27 35 3 46 0 46 -11 0 -8 -5 -14 -11 -14 -5 0
-7 -5 -3 -11 3 -6 17 -8 30 -5 14 4 24 2 24 -4 0 -5 8 -10 18 -10 14 0 15 2 2
10 -10 6 -11 10 -3 10 7 0 15 11 19 25 6 26 20 33 26 13 3 -8 9 -8 24 0 18 11
18 11 -3 12 -12 0 -23 6 -26 13 -3 8 -11 5 -24 -10 -23 -26 -55 -30 -73 -8 -7
8 -18 15 -26 15 -7 0 -14 10 -16 23 -3 21 -4 20 -18 -8z"/>
        <path d="M2865 1270 c3 -5 8 -10 11 -10 2 0 4 5 4 10 0 6 -5 10 -11 10 -5 0
-7 -4 -4 -10z"/>
        <path d="M3929 1263 c-13 -16 -12 -17 4 -4 16 13 21 21 13 21 -2 0 -10 -8 -17
-17z"/>
        <path d="M3230 1260 c0 -5 5 -10 11 -10 5 0 7 5 4 10 -3 6 -8 10 -11 10 -2 0
-4 -4 -4 -10z"/>
        <path d="M3727 1239 c7 -7 15 -10 18 -7 3 3 -2 9 -12 12 -14 6 -15 5 -6 -5z"/>
        <path d="M3916 1224 c-4 -9 -13 -14 -22 -10 -8 3 -12 2 -9 -3 10 -17 45 -8 45
11 0 22 -6 23 -14 2z"/>
        <path d="M2925 1220 c-3 -6 1 -7 9 -4 18 7 21 14 7 14 -6 0 -13 -4 -16 -10z"/>
        <path d="M3673 1205 c-10 -10 -9 -16 3 -26 8 -6 18 -8 22 -4 4 4 2 10 -5 12
-7 2 -9 11 -6 19 6 17 2 17 -14 -1z"/>
        <path d="M3555 1200 c-3 -6 1 -7 9 -4 18 7 21 14 7 14 -6 0 -13 -4 -16 -10z"/>
        <path d="M3486 1192 c-9 -14 10 -33 27 -26 21 8 22 20 1 28 -20 8 -22 8 -28
-2z"/>
        <path d="M2999 1169 c-8 -5 -9 -9 -2 -9 6 0 14 -10 16 -22 l4 -23 2 23 c0 12
8 22 16 22 8 0 12 -6 9 -13 -6 -18 32 -52 41 -37 4 7 -2 14 -14 17 -26 7 -27
20 -3 26 14 4 14 5 -3 6 -15 1 -16 4 -7 10 9 5 4 8 -15 9 -16 0 -36 -4 -44 -9z"/>
        <path d="M3406 1155 c4 -9 0 -15 -10 -15 -9 0 -16 -7 -16 -16 0 -12 6 -15 23
-10 12 3 30 6 40 6 9 0 17 7 17 15 0 14 -12 19 -32 16 -5 0 -8 4 -8 9 0 6 -4
10 -10 10 -5 0 -7 -7 -4 -15z"/>
        <path d="M3633 1155 c-17 -19 -16 -28 2 -22 8 4 17 2 20 -3 9 -15 22 -12 22 4
0 8 -6 12 -14 9 -7 -3 -13 -1 -13 5 0 6 6 13 13 15 8 4 7 6 -3 6 -8 0 -21 -6
-27 -14z"/>
        <path d="M3831 1161 c-8 -6 -9 -11 -3 -15 6 -3 14 -1 17 5 9 14 2 20 -14 10z"/>
        <path d="M3220 1140 c0 -11 4 -20 8 -20 4 0 8 9 8 20 0 11 -4 20 -8 20 -4 0
-8 -9 -8 -20z"/>
        <path d="M3253 1142 c-1 -9 -5 -32 -9 -49 -4 -23 -3 -33 6 -33 9 0 11 -12 8
-38 -6 -38 12 -69 32 -57 6 3 10 1 10 -6 0 -8 4 -9 13 0 9 6 17 7 23 1 5 -5
19 -7 32 -3 18 4 20 8 11 20 -10 11 -14 11 -21 1 -5 -9 -7 -5 -6 12 2 19 -1
24 -16 22 -11 -2 -17 1 -14 10 8 22 26 14 50 -22 18 -27 31 -36 58 -38 28 -2
32 0 20 9 -12 9 -11 10 5 4 11 -4 26 -9 33 -12 18 -8 15 11 -8 37 -11 13 -20
28 -20 34 0 6 -5 3 -11 -6 -9 -17 -11 -17 -37 0 -14 9 -23 11 -19 5 6 -9 3
-11 -7 -7 -9 3 -14 11 -13 17 1 6 -8 13 -20 15 -32 5 -29 20 5 25 25 4 24 4
-6 6 -30 1 -33 -1 -30 -26 2 -23 -1 -27 -17 -25 -17 2 -17 1 -5 -8 12 -8 13
-12 2 -19 -8 -4 -13 -11 -13 -15 4 -25 1 -30 -11 -18 -9 9 -9 15 -1 23 6 6 8
29 6 54 l-5 43 43 8 c39 6 41 8 19 14 -14 4 -37 5 -53 2 -22 -4 -26 -1 -21 11
3 8 2 17 -3 20 -5 3 -9 -2 -10 -11z m64 -157 c-15 -16 -19 -13 -11 9 3 9 10
13 15 10 5 -3 3 -11 -4 -19z"/>
        <path d="M3862 1148 c-17 -17 -15 -27 6 -25 10 0 18 9 18 19 0 21 -7 23 -24 6z"/>
        <path d="M3700 1138 c0 -10 31 -10 48 0 8 6 2 9 -18 9 -16 0 -30 -4 -30 -9z"/>
        <path d="M3790 1070 c0 -5 12 -10 28 -10 21 0 24 2 12 10 -20 13 -40 13 -40 0z"/>
        <path d="M3540 1050 c0 -5 5 -10 10 -10 6 0 10 5 10 10 0 6 -4 10 -10 10 -5 0
-10 -4 -10 -10z"/>
        <path d="M3601 1030 c0 -8 3 -21 8 -28 6 -10 10 -10 20 2 7 9 11 21 8 28 -4 8
-6 7 -6 -4 -1 -10 -5 -18 -10 -18 -5 0 -12 8 -14 18 -3 12 -5 13 -6 2z"/>
        <path d="M3515 1017 c22 -8 42 -12 44 -10 8 6 -5 11 -44 17 l-40 6 40 -13z"/>
        <path d="M3676 998 c-33 -19 -65 -61 -76 -100 -15 -53 1 -106 45 -148 30 -29
37 -32 45 -20 15 23 12 35 -15 60 -14 13 -23 30 -20 38 2 7 0 10 -5 7 -19 -12
-10 62 11 89 11 14 16 26 10 26 -18 0 -51 -57 -52 -92 -2 -31 -2 -32 -6 -4 -3
15 1 41 8 57 12 31 63 79 82 79 7 0 3 -7 -7 -15 -20 -15 -10 -20 18 -9 9 3 13
10 10 15 -3 5 0 9 5 9 6 0 11 5 11 10 0 13 -40 12 -64 -2z m10 -255 c-8 -9
-29 11 -50 49 l-20 33 38 -38 c21 -22 35 -41 32 -44z"/>
        <path d="M3237 950 c-3 -12 -9 -20 -14 -17 -4 3 -16 -1 -26 -8 -17 -12 -17
-14 -1 -29 10 -10 24 -14 36 -10 24 7 58 35 58 47 0 5 -7 1 -16 -7 -8 -9 -22
-16 -30 -16 -8 0 -14 -4 -14 -10 0 -15 -17 -12 -23 4 -4 10 -1 13 9 9 7 -3 14
0 14 7 0 6 4 9 9 5 15 -8 23 13 13 31 -8 14 -10 13 -15 -6z"/>
        <path d="M3072 943 c-73 -36 -112 -135 -79 -200 19 -35 38 -52 65 -58 24 -4
21 14 -10 54 -24 31 -23 88 2 128 14 24 31 35 65 44 45 11 59 32 29 43 -23 9
-36 7 -72 -11z m-27 -59 c-24 -32 -35 -58 -36 -83 -1 -20 -3 -28 -6 -18 -9 36
8 85 39 116 44 43 45 39 3 -15z m15 -186 c0 -14 -19 1 -31 25 -12 22 -12 22
10 3 11 -11 21 -23 21 -28z"/>
        <path d="M3320 935 c0 -8 5 -15 10 -15 6 0 10 7 10 15 0 8 -4 15 -10 15 -5 0
-10 -7 -10 -15z"/>
        <path d="M3345 903 c-4 -13 -14 -23 -22 -23 -8 0 -11 5 -8 10 8 13 -25 13 -45
0 -8 -5 -11 -12 -7 -17 5 -4 12 -1 17 7 6 8 10 10 10 4 0 -6 -6 -17 -14 -23
-11 -9 -15 -8 -21 6 -6 17 -7 17 -16 1 -6 -10 -17 -18 -24 -18 -8 0 -15 -7
-15 -15 0 -8 6 -12 13 -9 8 3 20 -3 28 -13 13 -16 12 -17 -2 -5 -13 10 -22 9
-45 -3 -20 -10 -23 -15 -11 -15 15 0 16 -3 7 -20 -6 -11 -15 -18 -20 -15 -6 3
-7 -1 -4 -10 6 -14 8 -14 20 2 10 14 15 16 25 6 11 -11 11 -15 0 -25 -10 -11
-11 -10 -6 5 4 9 3 17 -3 17 -5 0 -12 -6 -15 -14 -4 -9 -14 -12 -26 -9 -30 8
-51 -14 -51 -53 0 -24 5 -34 15 -34 8 0 15 -4 15 -9 0 -4 27 -11 60 -15 37 -4
58 -11 54 -17 -3 -6 0 -9 7 -8 8 2 24 -3 37 -10 13 -7 30 -10 39 -7 8 3 23 1
34 -4 10 -6 55 -11 99 -12 44 0 83 -5 86 -10 3 -5 11 -4 19 2 8 6 20 10 29 8
26 -5 16 42 -16 74 -23 23 -37 15 -20 -12 11 -18 10 -19 -19 -13 -21 4 -34 1
-39 -8 -5 -7 -12 -10 -16 -6 -4 4 5 20 20 36 23 23 26 33 17 48 -11 22 -34 23
-68 5 -15 -8 -24 -9 -28 -2 -11 18 13 37 47 38 25 1 29 -2 18 -9 -13 -9 -13
-10 0 -6 10 2 16 18 17 48 1 24 -1 36 -4 27 -6 -25 -23 -23 -23 3 0 12 -4 17
-11 14 -6 -4 -8 -13 -5 -21 3 -9 -2 -14 -14 -14 -12 0 -17 5 -14 14 3 7 -2 16
-10 19 -9 4 -16 13 -16 22 0 18 38 20 90 5 24 -7 37 -7 45 2 7 8 6 9 -3 4 -18
-11 -40 10 -37 37 1 12 -7 31 -18 42 -20 20 -20 20 -8 -2 6 -13 9 -23 5 -23
-3 0 -1 -6 5 -14 10 -11 8 -16 -9 -21 -12 -4 -24 -4 -27 -1 -4 3 1 6 11 6 9 0
14 5 11 11 -4 5 -19 9 -33 8 -72 -5 -91 0 -95 29 -4 26 -4 26 -12 5z m35 -67
c0 -3 -4 -8 -10 -11 -5 -3 -10 -1 -10 4 0 6 5 11 10 11 6 0 10 -2 10 -4z m30
-50 c0 -19 -28 -28 -51 -16 -11 6 -25 8 -31 4 -7 -5 -8 -3 -4 5 5 7 14 10 22
7 8 -3 14 -1 14 4 0 6 11 10 25 10 15 0 25 -6 25 -14z m-87 -66 c-3 -11 -9
-20 -14 -20 -5 0 -9 9 -9 20 0 11 6 20 14 20 9 0 12 -7 9 -20z m-43 -20 c0 -5
-9 -10 -20 -10 -11 0 -20 5 -20 10 0 6 9 10 20 10 11 0 20 -4 20 -10z m210
-63 c-10 -9 -11 -9 -6 0 3 6 2 14 -3 18 -5 3 -14 -3 -20 -12 -6 -10 -11 -14
-11 -9 0 5 8 18 17 28 15 17 18 17 26 2 6 -10 5 -20 -3 -27z m-123 -43 c-3 -3
-12 -4 -19 -1 -8 3 -5 6 6 6 11 1 17 -2 13 -5z m141 -21 c-10 -2 -26 -2 -35 0
-10 3 -2 5 17 5 19 0 27 -2 18 -5z"/>
        <path d="M3880 860 c0 -5 -11 -10 -25 -10 -14 0 -25 -4 -25 -9 0 -5 11 -12 25
-15 14 -4 25 -13 25 -20 0 -8 6 -17 13 -20 9 -5 9 -7 -1 -12 -7 -3 -19 -12
-26 -20 -8 -8 -20 -14 -27 -14 -10 0 -10 -3 -2 -11 9 -9 18 -5 37 14 14 14 36
29 48 33 45 14 53 64 13 82 -32 15 -55 15 -55 2z m36 -35 c10 -26 -1 -35 -13
-10 -6 14 -7 25 -2 25 5 0 12 -7 15 -15z"/>
        <path d="M3106 844 c-4 -10 -1 -14 6 -12 15 5 23 28 10 28 -5 0 -13 -7 -16
-16z"/>
        <path d="M3786 813 c-13 -13 -5 -23 18 -23 28 0 56 9 56 19 0 8 -66 11 -74 4z"/>
        <path d="M3065 750 c-3 -5 -1 -10 4 -10 6 0 11 5 11 10 0 6 -2 10 -4 10 -3 0
-8 -4 -11 -10z"/>
        <path d="M3798 753 c7 -3 16 -2 19 1 4 3 -2 6 -13 5 -11 0 -14 -3 -6 -6z"/>
        <path d="M3447 696 c-4 -10 -1 -13 9 -9 15 6 19 23 5 23 -5 0 -11 -7 -14 -14z"/>
        <path d="M3530 700 c0 -5 5 -10 10 -10 6 0 10 5 10 10 0 6 -4 10 -10 10 -5 0
-10 -4 -10 -10z"/>
        <path d="M3845 669 c-11 -17 1 -21 15 -4 8 9 8 15 2 15 -6 0 -14 -5 -17 -11z"/>
        <path d="M2998 649 c24 -11 49 -18 55 -16 7 2 -4 9 -23 15 -19 5 -44 13 -55
16 -11 3 -1 -3 23 -15z"/>
        <path d="M3818 633 c6 -2 18 -2 25 0 6 3 1 5 -13 5 -14 0 -19 -2 -12 -5z"/>
        <path d="M3108 613 c7 -3 16 -2 19 1 4 3 -2 6 -13 5 -11 0 -14 -3 -6 -6z"/>
        <path d="M3730 583 c0 -19 5 -23 33 -23 17 0 42 -3 55 -6 16 -5 22 -3 20 6 -2
7 7 16 20 19 46 12 15 26 -55 26 -69 0 -73 -1 -73 -22z"/>
        <path d="M3935 560 c3 -5 1 -10 -6 -10 -7 0 -10 -2 -7 -6 3 -3 21 2 39 10 l34
14 -33 1 c-20 1 -31 -3 -27 -9z"/>
        <path d="M3388 543 c6 -2 18 -2 25 0 6 3 1 5 -13 5 -14 0 -19 -2 -12 -5z"/>
    </g>
</svg>
