<svg width="40" height="32" viewBox="0 0 42 35" fill="none" xmlns="http://www.w3.org/2000/svg">
<path fill-rule="evenodd" clip-rule="evenodd" d="M8.176 5.6L7.5929 2.1H5.4999C5.1877 0.896 4.1013 0 2.8 0C1.2558 0 0 1.2558 0 2.8C0 4.3442 1.2558 5.6 2.8 5.6C4.1013 5.6 5.1877 4.704 5.5006 3.5H6.4064L6.7564 5.6H6.7298L10.3495 23.8112C8.624 23.9428 7.1869 25.2714 7.0175 26.943C6.9181 27.9265 7.2415 28.9114 7.9051 29.6436C8.5694 30.3779 9.5158 30.8 10.5 30.8H11.9C11.9 33.1163 13.7837 35 16.1 35C18.4163 35 20.3 33.1163 20.3 30.8H28C28 33.1163 29.8837 35 32.2 35C34.5163 35 36.4 33.1163 36.4 30.8H39.2C39.5871 30.8 39.9 30.4871 39.9 30.1C39.9 29.7129 39.5871 29.4 39.2 29.4H36.155C35.5768 27.7711 34.0249 26.6 32.2 26.6C30.3751 26.6 28.8232 27.7711 28.245 29.4H20.055C19.4768 27.7711 17.9249 26.6 16.1 26.6C14.2751 26.6 12.7232 27.7711 12.145 29.4H10.5C9.9106 29.4 9.3436 29.1466 8.9432 28.7049C8.5393 28.2576 8.3496 27.6822 8.4105 27.0837C8.5169 26.0274 9.4927 25.2007 10.6316 25.2007H11.1853H11.2126H38.5084C40.4341 25.2 42 23.6341 42 21.7091V5.6H8.176ZM2.8 4.2C2.0279 4.2 1.4 3.5721 1.4 2.8C1.4 2.0279 2.0279 1.4 2.8 1.4C3.5721 1.4 4.2 2.0279 4.2 2.8C4.2 3.5721 3.5721 4.2 2.8 4.2ZM35 30.8C35 29.2558 33.7442 28 32.2 28C30.6558 28 29.4 29.2558 29.4 30.8C29.4 32.3442 30.6558 33.6 32.2 33.6C33.7442 33.6 35 32.3442 35 30.8ZM16.1 28C17.6442 28 18.9 29.2558 18.9 30.8C18.9 32.3442 17.6442 33.6 16.1 33.6C14.5558 33.6 13.3 32.3442 13.3 30.8C13.3 29.2558 14.5558 28 16.1 28ZM38.5091 23.8C39.662 23.8 40.6 22.862 40.6 21.7091V7H8.4357L11.7747 23.8H38.5091Z" fill="black"/>
</svg>
